<?xml version="1.0" encoding="utf-8"?>
<!-- Generator: Adobe Illustrator 13.0.0, SVG Export Plug-In . SVG Version: 6.00 Build 14948)  -->
<!DOCTYPE svg PUBLIC "-//W3C//DTD SVG 1.1//EN" "http://www.w3.org/Graphics/SVG/1.1/DTD/svg11.dtd">
<svg version="1.1" id="Layer_1" xmlns="http://www.w3.org/2000/svg" xmlns:xlink="http://www.w3.org/1999/xlink" x="0px" y="0px"
	 width="584.188px" height="769.918px" viewBox="0 0 584.188 769.918" enable-background="new 0 0 584.188 769.918"
	 xml:space="preserve">
<g>
	<g transform="translate(752.4218784999999, 22.5000185) ">
		<polygon fill="none" stroke="#010101" stroke-width="0.25" points="-752.297,113.121 -729.62,113.121 -729.62,121.625 
			-706.942,121.625 -706.942,113.121 -689.935,113.121 -689.935,121.625 -672.927,121.625 -672.927,113.121 -655.919,113.121 
			-655.919,121.625 -638.911,121.625 -638.911,113.121 -621.903,113.121 -621.903,121.625 -604.896,121.625 -604.896,113.121 
			-587.888,113.121 -587.888,121.625 -570.88,121.625 -570.88,113.121 -553.872,113.121 -553.872,121.625 -536.864,121.625 
			-536.864,113.121 -519.855,113.121 -519.855,121.625 -502.848,121.625 -502.848,113.121 -485.84,113.121 -485.84,121.625 
			-468.832,121.625 -468.832,113.121 -451.824,113.121 -451.824,121.625 -434.816,121.625 -434.816,113.121 -417.809,113.121 
			-417.809,121.625 -400.802,121.625 -400.802,113.121 -383.796,113.121 -383.796,121.625 -366.785,121.625 -366.785,113.121 
			-349.777,113.121 -349.777,121.625 -332.77,121.625 -332.77,113.121 -315.762,113.121 -315.762,121.625 -298.757,121.625 
			-298.757,113.121 -281.746,113.121 -281.746,121.625 -264.738,121.625 -264.738,113.121 -247.73,113.121 -247.73,121.625 
			-230.722,121.625 -230.722,113.121 -213.717,113.121 -213.717,121.625 -191.037,121.625 -191.037,113.121 -168.359,113.121 
			-168.359,141.467 -176.864,141.467 -176.864,169.813 -168.359,169.813 -168.359,186.821 -176.864,186.821 -176.864,215.168 
			-168.359,215.168 -168.359,243.515 -191.037,243.515 -191.037,235.011 -213.717,235.011 -213.717,243.515 -230.722,243.515 
			-230.722,235.011 -247.73,235.011 -247.73,243.515 -264.738,243.515 -264.738,235.011 -281.746,235.011 -281.746,243.515 
			-298.757,243.515 -298.757,235.011 -315.762,235.011 -315.762,243.515 -332.77,243.515 -332.77,235.011 -349.777,235.011 
			-349.777,243.515 -366.785,243.515 -366.785,235.011 -383.796,235.011 -383.796,243.515 -400.802,243.515 -400.802,235.011 
			-417.809,235.011 -417.809,243.515 -434.816,243.515 -434.816,235.011 -451.824,235.011 -451.824,243.515 -468.832,243.515 
			-468.832,235.011 -485.84,235.011 -485.84,243.515 -502.848,243.515 -502.848,235.011 -519.855,235.011 -519.855,243.515 
			-536.864,243.515 -536.864,235.011 -553.872,235.011 -553.872,243.515 -570.88,243.515 -570.88,235.011 -587.888,235.011 
			-587.888,243.515 -604.896,243.515 -604.896,235.011 -621.903,235.011 -621.903,243.515 -638.911,243.515 -638.911,235.011 
			-655.919,235.011 -655.919,243.515 -672.927,243.515 -672.927,235.011 -689.935,235.011 -689.935,243.515 -706.942,243.515 
			-706.942,235.011 -729.62,235.011 -729.62,243.515 -752.297,243.515 -752.297,215.168 -743.793,215.168 -743.793,186.821 
			-752.297,186.821 -752.297,169.813 -743.793,169.813 -743.793,141.467 -752.297,141.467 		"/>
	</g>
	<g>
		<g>
			<circle fill="none" stroke="#010101" stroke-width="0.25" cx="43.378" cy="158.515" r="4.252"/>
			<circle fill="none" stroke="#010101" stroke-width="0.25" cx="257.109" cy="158.515" r="4.252"/>
			<circle fill="none" stroke="#010101" stroke-width="0.25" cx="257.109" cy="247.522" r="4.252"/>
			<circle fill="none" stroke="#010101" stroke-width="0.25" cx="43.378" cy="247.522" r="4.252"/>
		</g>
		<g>
			<path fill="none" stroke="#010101" stroke-width="0.25" d="M250.449,233.917c0,1.559-1.275,2.834-2.834,2.834H52.873
				c-1.562,0-2.834-1.275-2.834-2.834v-61.796c0-1.559,1.272-2.834,2.834-2.834h194.742c1.559,0,2.834,1.275,2.834,2.834V233.917z"
				/>
		</g>
	</g>
</g>
<g>
	<g>
		<g transform="translate(752.4218784999999, 185.4922785) ">
			<polygon fill="none" stroke="#010101" stroke-width="0.25" points="-176.863,116.263 -168.359,116.263 -168.359,141.774 
				-176.863,141.774 -176.863,158.782 -168.359,158.782 -168.359,175.79 -176.863,175.79 -176.863,192.798 -168.359,192.798 
				-168.359,209.807 -176.863,209.807 -176.863,226.812 -168.359,226.812 -168.359,243.821 -176.863,243.821 -176.863,260.829 
				-168.359,260.829 -168.359,277.838 -176.863,277.838 -176.863,294.846 -168.359,294.846 -168.359,311.854 -176.863,311.854 
				-176.863,328.862 -168.359,328.862 -168.359,345.87 -176.863,345.87 -176.863,362.877 -168.359,362.877 -168.359,379.885 
				-176.863,379.885 -176.863,396.893 -168.359,396.893 -168.359,422.405 -176.863,422.405 -176.863,439.413 -191.036,439.413 
				-191.036,447.916 -213.716,447.916 -213.716,439.413 -230.72,439.413 -230.72,447.916 -247.728,447.916 -247.728,439.413 
				-264.737,439.413 -264.737,447.916 -281.745,447.916 -281.745,439.413 -298.755,439.413 -298.755,447.916 -315.76,447.916 
				-315.76,439.413 -332.767,439.413 -332.767,447.916 -349.775,447.916 -349.775,439.413 -366.783,439.413 -366.783,447.916 
				-383.791,447.916 -383.791,439.413 -400.802,439.413 -400.802,447.916 -417.807,447.916 -417.807,439.413 -434.816,439.413 
				-434.816,447.916 -451.824,447.916 -451.824,439.413 -468.832,439.413 -468.832,447.916 -485.84,447.916 -485.84,439.413 
				-502.846,439.413 -502.846,447.916 -519.854,447.916 -519.854,439.413 -536.862,439.413 -536.862,447.916 -553.871,447.916 
				-553.871,439.413 -570.879,439.413 -570.879,447.916 -587.885,447.916 -587.885,439.413 -604.893,439.413 -604.893,447.916 
				-621.901,447.916 -621.901,439.413 -638.91,439.413 -638.91,447.916 -655.918,447.916 -655.918,439.413 -672.927,439.413 
				-672.927,447.916 -689.932,447.916 -689.932,439.413 -706.94,439.413 -706.94,447.916 -729.619,447.916 -729.619,439.413 
				-743.791,439.413 -743.791,422.405 -752.297,422.405 -752.297,396.893 -743.791,396.893 -743.791,379.885 -752.297,379.885 
				-752.297,362.877 -743.791,362.877 -743.791,345.87 -752.297,345.87 -752.297,328.862 -743.791,328.862 -743.791,311.854 
				-752.297,311.854 -752.297,294.846 -743.791,294.846 -743.791,277.838 -752.297,277.838 -752.297,260.829 -743.791,260.829 
				-743.791,243.821 -752.297,243.821 -752.297,226.812 -743.791,226.812 -743.791,209.807 -752.297,209.807 -752.297,192.798 
				-743.791,192.798 -743.791,175.79 -752.297,175.79 -752.297,158.782 -743.791,158.782 -743.791,141.774 -752.297,141.774 
				-752.297,116.263 -743.791,116.263 -743.791,99.255 -729.619,99.255 -729.619,90.751 -706.94,90.751 -706.94,99.255 
				-689.932,99.255 -689.932,90.751 -672.927,90.751 -672.927,99.255 -655.918,99.255 -655.918,90.751 -638.91,90.751 
				-638.91,99.255 -621.901,99.255 -621.901,90.751 -604.893,90.751 -604.893,99.255 -587.885,99.255 -587.885,90.751 
				-570.879,90.751 -570.879,99.255 -553.871,99.255 -553.871,90.751 -536.862,90.751 -536.862,99.255 -519.854,99.255 
				-519.854,90.751 -502.846,90.751 -502.846,99.255 -485.84,99.255 -485.84,90.751 -468.832,90.751 -468.832,99.255 
				-451.824,99.255 -451.824,90.751 -434.816,90.751 -434.816,99.255 -417.807,99.255 -417.807,90.751 -400.802,90.751 
				-400.802,99.255 -383.791,99.255 -383.791,90.751 -366.783,90.751 -366.783,99.255 -349.775,99.255 -349.775,90.751 
				-332.767,90.751 -332.767,99.255 -315.76,99.255 -315.76,90.751 -298.755,90.751 -298.755,99.255 -281.745,99.255 
				-281.745,90.751 -264.737,90.751 -264.737,99.255 -247.728,99.255 -247.728,90.751 -230.72,90.751 -230.72,99.255 
				-213.716,99.255 -213.716,90.751 -191.036,90.751 -191.036,99.255 -176.863,99.255 			"/>
		</g>
		<g>
			<g>
				<path fill="none" stroke="#010101" stroke-width="0.25" d="M336.19,332.825c0-1.657,0.547-3,1.222-3h202.364
					c0.676,0,1.223,1.343,1.223,3l0,0c0,1.656-0.548,3-1.223,3H337.409C336.737,335.825,336.19,334.481,336.19,332.825
					L336.19,332.825z"/>
				<path fill="none" stroke="#010101" stroke-width="0.25" d="M336.19,373.491c0-1.656,0.547-3,1.222-3h202.364
					c0.676,0,1.223,1.344,1.223,3l0,0c0,1.656-0.548,3-1.223,3H337.409C336.737,376.491,336.19,375.147,336.19,373.491
					L336.19,373.491z"/>
				<path fill="none" stroke="#010101" stroke-width="0.25" d="M336.19,414.159c0-1.656,0.547-3,1.222-3h202.364
					c0.676,0,1.223,1.344,1.223,3l0,0c0,1.655-0.548,3-1.223,3H337.409C336.737,417.159,336.19,415.814,336.19,414.159
					L336.19,414.159z"/>
				<path fill="none" stroke="#010101" stroke-width="0.25" d="M336.19,536.159c0-1.656,0.547-3,1.222-3h202.364
					c0.676,0,1.223,1.344,1.223,3l0,0c0,1.656-0.548,3-1.223,3H337.409C336.737,539.159,336.19,537.815,336.19,536.159
					L336.19,536.159z"/>
				<path fill="none" stroke="#010101" stroke-width="0.25" d="M336.19,495.493c0-1.656,0.547-3,1.222-3h202.364
					c0.676,0,1.223,1.344,1.223,3l0,0c0,1.656-0.548,3-1.223,3H337.409C336.737,498.493,336.19,497.149,336.19,495.493
					L336.19,495.493z"/>
				<path fill="none" stroke="#010101" stroke-width="0.25" d="M336.19,454.825c0-1.656,0.547-3,1.222-3h202.364
					c0.676,0,1.223,1.344,1.223,3l0,0c0,1.656-0.548,3-1.223,3H337.409C336.737,457.825,336.19,456.481,336.19,454.825
					L336.19,454.825z"/>
				<path fill="none" stroke="#010101" stroke-width="0.25" d="M336.19,576.825c0-1.656,0.547-3,1.222-3h202.364
					c0.676,0,1.223,1.344,1.223,3l0,0c0,1.656-0.548,3-1.223,3H337.409C336.737,579.825,336.19,578.481,336.19,576.825
					L336.19,576.825z"/>
			</g>
			<g>
				<path fill="none" stroke="#010101" stroke-width="0.25" d="M43.191,332.825c0-1.657,0.547-3,1.223-3h202.363
					c0.676,0,1.223,1.343,1.223,3l0,0c0,1.656-0.547,3-1.223,3H44.411C43.738,335.825,43.191,334.481,43.191,332.825L43.191,332.825
					z"/>
				<path fill="none" stroke="#010101" stroke-width="0.25" d="M43.191,373.491c0-1.656,0.547-3,1.223-3h202.363
					c0.676,0,1.223,1.344,1.223,3l0,0c0,1.656-0.547,3-1.223,3H44.411C43.738,376.491,43.191,375.147,43.191,373.491L43.191,373.491
					z"/>
				<path fill="none" stroke="#010101" stroke-width="0.25" d="M43.191,414.159c0-1.656,0.547-3,1.223-3h202.363
					c0.676,0,1.223,1.344,1.223,3l0,0c0,1.655-0.547,3-1.223,3H44.411C43.738,417.159,43.191,415.814,43.191,414.159L43.191,414.159
					z"/>
				<path fill="none" stroke="#010101" stroke-width="0.25" d="M43.191,536.159c0-1.656,0.547-3,1.223-3h202.363
					c0.676,0,1.223,1.344,1.223,3l0,0c0,1.656-0.547,3-1.223,3H44.411C43.738,539.159,43.191,537.815,43.191,536.159L43.191,536.159
					z"/>
				<path fill="none" stroke="#010101" stroke-width="0.25" d="M43.191,495.493c0-1.656,0.547-3,1.223-3h202.363
					c0.676,0,1.223,1.344,1.223,3l0,0c0,1.656-0.547,3-1.223,3H44.411C43.738,498.493,43.191,497.149,43.191,495.493L43.191,495.493
					z"/>
				<path fill="none" stroke="#010101" stroke-width="0.25" d="M43.191,454.825c0-1.656,0.547-3,1.223-3h202.363
					c0.676,0,1.223,1.344,1.223,3l0,0c0,1.656-0.547,3-1.223,3H44.411C43.738,457.825,43.191,456.481,43.191,454.825L43.191,454.825
					z"/>
				<path fill="none" stroke="#010101" stroke-width="0.25" d="M43.191,576.825c0-1.656,0.547-3,1.223-3h202.363
					c0.676,0,1.223,1.344,1.223,3l0,0c0,1.656-0.547,3-1.223,3H44.411C43.738,579.825,43.191,578.481,43.191,576.825L43.191,576.825
					z"/>
			</g>
		</g>
	</g>
	<g>
		<circle fill="none" stroke="#010101" stroke-width="0.25" cx="207.49" cy="399.874" r="4.252"/>
		<circle fill="none" stroke="#010101" stroke-width="0.25" cx="207.49" cy="555.778" r="4.252"/>
	</g>
	<g>
		<g>
			<g>
				<g>
					<circle fill="none" stroke="#010101" stroke-width="0.25" cx="508.945" cy="294.668" r="4.252"/>
					<circle fill="none" stroke="#010101" stroke-width="0.25" cx="508.945" cy="433.567" r="4.252"/>
					<circle fill="none" stroke="#010101" stroke-width="0.25" cx="344.534" cy="433.567" r="4.252"/>
					<circle fill="none" stroke="#010101" stroke-width="0.25" cx="344.534" cy="294.668" r="4.252"/>
				</g>
			</g>
		</g>
	</g>
</g>
<g>
	<g>
		<g transform="translate(22.5000185, 22.5000185) ">
			<polygon fill="none" stroke="#010101" stroke-width="0.25" points="-22.375,79.673 -13.871,79.673 -13.871,51.326 
				-22.375,51.326 -22.375,34.318 -13.871,34.318 -13.871,5.972 -22.375,5.972 -22.375,-22.375 0.302,-22.375 0.302,-13.871 
				22.98,-13.871 22.98,-22.375 39.989,-22.375 39.989,-13.871 56.996,-13.871 56.996,-22.375 74.003,-22.375 74.003,-13.871 
				91.011,-13.871 91.011,-22.375 108.019,-22.375 108.019,-13.871 125.028,-13.871 125.028,-22.375 142.035,-22.375 
				142.035,-13.871 159.043,-13.871 159.043,-22.375 176.05,-22.375 176.05,-13.871 193.058,-13.871 193.058,-22.375 
				210.068,-22.375 210.068,-13.871 227.075,-13.871 227.075,-22.375 244.083,-22.375 244.083,-13.871 261.09,-13.871 
				261.09,-22.375 278.098,-22.375 278.098,-13.871 295.106,-13.871 295.106,-22.375 312.113,-22.375 312.113,-13.871 
				329.121,-13.871 329.121,-22.375 346.13,-22.375 346.13,-13.871 363.138,-13.871 363.138,-22.375 380.146,-22.375 
				380.146,-13.871 397.154,-13.871 397.154,-22.375 414.16,-22.375 414.16,-13.871 431.169,-13.871 431.169,-22.375 
				448.177,-22.375 448.177,-13.871 465.185,-13.871 465.185,-22.375 482.193,-22.375 482.193,-13.871 499.199,-13.871 
				499.199,-22.375 516.209,-22.375 516.209,-13.871 538.886,-13.871 538.886,-22.375 561.563,-22.375 561.563,5.972 553.059,5.972 
				553.059,34.318 561.563,34.318 561.563,51.326 553.059,51.326 553.059,79.673 561.563,79.673 561.563,108.019 538.886,108.019 
				538.886,99.515 516.209,99.515 516.209,108.019 499.199,108.019 499.199,99.515 482.193,99.515 482.193,108.019 465.185,108.019 
				465.185,99.515 448.177,99.515 448.177,108.019 431.169,108.019 431.169,99.515 414.16,99.515 414.16,108.019 397.154,108.019 
				397.154,99.515 380.146,99.515 380.146,108.019 363.138,108.019 363.138,99.515 346.13,99.515 346.13,108.019 329.121,108.019 
				329.121,99.515 312.113,99.515 312.113,108.019 295.106,108.019 295.106,99.515 278.098,99.515 278.098,108.019 261.09,108.019 
				261.09,99.515 244.083,99.515 244.083,108.019 227.075,108.019 227.075,99.515 210.068,99.515 210.068,108.019 193.058,108.019 
				193.058,99.515 176.05,99.515 176.05,108.019 159.043,108.019 159.043,99.515 142.035,99.515 142.035,108.019 125.028,108.019 
				125.028,99.515 108.019,99.515 108.019,108.019 91.011,108.019 91.011,99.515 74.003,99.515 74.003,108.019 56.996,108.019 
				56.996,99.515 39.989,99.515 39.989,108.019 22.98,108.019 22.98,99.515 0.302,99.515 0.302,108.019 -22.375,108.019 			"/>
		</g>
		<g>
			<path fill="none" stroke="#010101" stroke-width="0.25" d="M128.254,81.668c0,6.627-5.372,12-12,12H62.302
				c-6.628,0-12-5.373-12-12V48.975c0-6.627,5.372-12,12-12h53.952c6.628,0,12,5.373,12,12V81.668z"/>
			<g>
				<circle fill="none" stroke="#010101" stroke-width="0.25" cx="145.97" cy="65.322" r="4.252"/>
				<circle fill="none" stroke="#010101" stroke-width="0.25" cx="32.585" cy="65.322" r="4.252"/>
			</g>
		</g>
	</g>
	
		<circle fill="none" stroke="#000000" stroke-width="0.25" stroke-linecap="round" stroke-linejoin="round" stroke-miterlimit="10" cx="486.177" cy="104.004" r="8.504"/>
	
		<path fill="none" stroke="#000000" stroke-width="0.25" stroke-linecap="round" stroke-linejoin="round" stroke-miterlimit="10" d="
		M351.81,107.427c0-2.997,2.207-5.425,4.929-5.425h15.23c2.721,0,4.928,2.428,4.928,5.425l0,0c0,2.996-2.207,5.424-4.928,5.424
		h-15.23C354.017,112.851,351.81,110.423,351.81,107.427L351.81,107.427z"/>
	
		<path fill="none" stroke="#000000" stroke-width="0.25" stroke-linecap="round" stroke-linejoin="round" stroke-miterlimit="10" d="
		M408.501,110.579l-5.538-6.792c0-3.774,0-7.547,0-11.32c14.769,0,29.537,0,44.306,0c0,4.151,0,8.301,0,12.452l-5.539,5.66
		C430.653,110.579,419.575,110.579,408.501,110.579"/>
</g>
<line fill="none" stroke="#000000" stroke-width="0.25" stroke-linecap="round" stroke-linejoin="round" stroke-miterlimit="10" x1="292.094" y1="418.234" x2="292.094" y2="423.905"/>
<g>
	<g transform="translate(1482.3437385, 185.4922785) ">
		<polygon fill="none" stroke="#010101" stroke-width="0.25" points="-1020.174,482.254 -1011.67,482.254 -1011.67,510.6 
			-1020.174,510.6 -1020.174,527.608 -1011.67,527.608 -1011.67,555.955 -1020.174,555.955 -1020.174,584.301 -1037.179,584.301 
			-1037.179,575.797 -1062.69,575.797 -1062.69,584.301 -1079.698,584.301 -1079.698,575.797 -1096.707,575.797 -1096.707,584.301 
			-1113.717,584.301 -1113.717,575.797 -1130.722,575.797 -1130.722,584.301 -1147.729,584.301 -1147.729,575.797 
			-1164.737,575.797 -1164.737,584.301 -1181.746,584.301 -1181.746,575.797 -1198.754,575.797 -1198.754,584.301 
			-1215.761,584.301 -1215.761,575.797 -1232.769,575.797 -1232.769,584.301 -1249.776,584.301 -1249.776,575.797 
			-1266.785,575.797 -1266.785,584.301 -1283.794,584.301 -1283.794,575.797 -1300.802,575.797 -1300.802,584.301 -1317.81,584.301 
			-1317.81,575.797 -1343.321,575.797 -1343.321,584.301 -1360.329,584.301 -1360.329,555.955 -1368.833,555.955 -1368.833,527.608 
			-1360.329,527.608 -1360.329,510.6 -1368.833,510.6 -1368.833,482.254 -1360.329,482.254 -1360.329,453.909 -1343.321,453.909 
			-1343.321,462.413 -1317.81,462.413 -1317.81,453.909 -1300.802,453.909 -1300.802,462.413 -1283.794,462.413 -1283.794,453.909 
			-1266.785,453.909 -1266.785,462.413 -1249.776,462.413 -1249.776,453.909 -1232.769,453.909 -1232.769,462.413 
			-1215.761,462.413 -1215.761,453.909 -1198.754,453.909 -1198.754,462.413 -1181.746,462.413 -1181.746,453.909 
			-1164.737,453.909 -1164.737,462.413 -1147.729,462.413 -1147.729,453.909 -1130.722,453.909 -1130.722,462.413 
			-1113.717,462.413 -1113.717,453.909 -1096.707,453.909 -1096.707,462.413 -1079.698,462.413 -1079.698,453.909 -1062.69,453.909 
			-1062.69,462.413 -1037.179,462.413 -1037.179,453.909 -1020.174,453.909 		"/>
	</g>
	<g>
		
			<path fill="none" stroke="#000000" stroke-width="0.25" stroke-linecap="round" stroke-linejoin="round" stroke-miterlimit="10" d="
			M127.24,713.256c0-0.777,0.638-1.416,1.417-1.416h45.021c0.779,0,1.417,0.639,1.417,1.416v37.246c0,0.779-0.638,1.418-1.417,1.418
			h-45.021c-0.779,0-1.417-0.639-1.417-1.418V713.256z"/>
	</g>
	<g>
		
			<path fill="none" stroke="#000000" stroke-width="0.25" stroke-linecap="round" stroke-linejoin="round" stroke-miterlimit="10" d="
			M182.615,708.86c0-1.563,1.272-2.836,2.835-2.836h37.339c1.56,0,2.835,1.273,2.835,2.836v40.674c0,1.561-1.275,2.836-2.835,2.836
			H185.45c-1.563,0-2.836-1.275-2.836-2.836L182.615,708.86L182.615,708.86z"/>
	</g>
	<g>
		
			<path fill="none" stroke="#000000" stroke-width="0.25" stroke-linecap="round" stroke-linejoin="round" stroke-miterlimit="10" d="
			M233.531,708.86c0-1.563,1.274-2.836,2.837-2.836h37.338c1.56,0,2.835,1.273,2.835,2.836v40.674c0,1.561-1.275,2.836-2.835,2.836
			h-37.338c-1.563,0-2.836-1.275-2.836-2.836L233.531,708.86L233.531,708.86z"/>
	</g>
</g>
</svg>
