<?xml version="1.0" encoding="utf-8"?>
<!-- Generator: Adobe Illustrator 13.0.0, SVG Export Plug-In . SVG Version: 6.00 Build 14948)  -->
<!DOCTYPE svg PUBLIC "-//W3C//DTD SVG 1.1//EN" "http://www.w3.org/Graphics/SVG/1.1/DTD/svg11.dtd">
<svg version="1.1" id="Layer_1" xmlns="http://www.w3.org/2000/svg" xmlns:xlink="http://www.w3.org/1999/xlink" x="0px" y="0px"
	 width="586.037px" height="721.146px" viewBox="0 0 586.037 721.146" enable-background="new 0 0 586.037 721.146"
	 xml:space="preserve">
<g transform="translate(1482.3437385, 22.5000185) ">
	<polygon fill="none" stroke="#010101" stroke-width="0.25" points="-1482.219,690.018 -1482.219,673.01 -1473.715,673.01 
		-1473.715,647.498 -1482.219,647.498 -1482.219,630.49 -1473.715,630.49 -1473.715,613.482 -1482.219,613.482 -1482.219,596.475 
		-1473.715,596.475 -1473.715,579.467 -1482.219,579.467 -1482.219,562.459 -1473.715,562.459 -1473.715,545.451 -1482.219,545.451 
		-1482.219,528.443 -1473.715,528.443 -1473.715,511.436 -1482.219,511.436 -1482.219,494.428 -1473.715,494.428 -1473.715,477.42 
		-1482.219,477.42 -1482.219,460.412 -1473.715,460.412 -1473.715,443.404 -1482.219,443.404 -1482.219,426.396 -1473.715,426.396 
		-1473.715,409.389 -1482.219,409.389 -1482.219,392.381 -1473.715,392.381 -1473.715,366.869 -1482.219,366.869 -1482.219,349.86 
		-1453.873,349.86 -1453.873,341.356 -1425.526,341.356 -1425.526,349.86 -1408.519,349.86 -1408.519,341.356 -1380.172,341.356 
		-1380.172,349.86 -1351.823,349.86 -1351.823,366.869 -1360.329,366.869 -1360.329,392.381 -1351.823,392.381 -1351.823,409.389 
		-1360.329,409.389 -1360.329,426.396 -1351.823,426.396 -1351.823,443.404 -1360.329,443.404 -1360.329,460.412 -1351.823,460.412 
		-1351.823,477.42 -1360.329,477.42 -1360.329,494.428 -1351.823,494.428 -1351.823,511.436 -1360.329,511.436 -1360.329,528.443 
		-1351.823,528.443 -1351.823,545.451 -1360.329,545.451 -1360.329,562.459 -1351.823,562.459 -1351.823,579.467 -1360.329,579.467 
		-1360.329,596.475 -1351.823,596.475 -1351.823,613.482 -1360.329,613.482 -1360.329,630.49 -1351.823,630.49 -1351.823,647.498 
		-1360.329,647.498 -1360.329,673.01 -1351.823,673.01 -1351.823,690.018 -1380.172,690.018 -1380.172,698.521 -1408.519,698.521 
		-1408.519,690.018 -1425.526,690.018 -1425.526,698.521 -1453.873,698.521 -1453.873,690.018 	"/>
</g>
<g>
	<g>
		<g transform="translate(22.5000185, 185.4922785) ">
			<polygon fill="none" stroke="#010101" stroke-width="0.25" points="-12.021,-176.863 2.152,-176.863 2.152,-185.367 
				24.83,-185.367 24.83,-176.863 41.838,-176.863 41.838,-185.367 58.846,-185.367 58.846,-176.863 75.854,-176.863 
				75.854,-185.367 92.861,-185.367 92.861,-176.863 109.869,-176.863 109.869,-185.367 126.877,-185.367 126.877,-176.863 
				143.885,-176.863 143.885,-185.367 160.893,-185.367 160.893,-176.863 177.9,-176.863 177.9,-185.367 194.908,-185.367 
				194.908,-176.863 211.916,-176.863 211.916,-185.367 228.924,-185.367 228.924,-176.863 245.932,-176.863 245.932,-185.367 
				262.939,-185.367 262.939,-176.863 279.947,-176.863 279.947,-185.367 296.955,-185.367 296.955,-176.863 313.965,-176.863 
				313.965,-185.367 330.972,-185.367 330.972,-176.863 347.979,-176.863 347.979,-185.367 364.987,-185.367 364.987,-176.863 
				381.995,-176.863 381.995,-185.367 399.005,-185.367 399.005,-176.863 416.011,-176.863 416.011,-185.367 433.019,-185.367 
				433.019,-176.863 450.026,-176.863 450.026,-185.367 467.034,-185.367 467.034,-176.863 484.044,-176.863 484.044,-185.367 
				501.051,-185.367 501.051,-176.863 518.058,-176.863 518.058,-185.367 540.735,-185.367 540.735,-176.863 554.908,-176.863 
				554.908,-159.856 563.412,-159.856 563.412,-134.344 554.908,-134.344 554.908,-117.336 563.412,-117.336 563.412,-100.328 
				554.908,-100.328 554.908,-83.32 563.412,-83.32 563.412,-66.313 554.908,-66.313 554.908,-49.305 563.412,-49.305 
				563.412,-32.297 554.908,-32.297 554.908,-15.289 563.412,-15.289 563.412,1.72 554.908,1.72 554.908,18.727 563.412,18.727 
				563.412,35.735 554.908,35.735 554.908,52.743 563.412,52.743 563.412,69.751 554.908,69.751 554.908,86.759 563.412,86.759 
				563.412,103.766 554.908,103.766 554.908,120.774 563.412,120.774 563.412,146.286 554.908,146.286 554.908,163.294 
				540.735,163.294 540.735,171.798 518.058,171.798 518.058,163.294 501.051,163.294 501.051,171.798 484.044,171.798 
				484.044,163.294 467.034,163.294 467.034,171.798 450.026,171.798 450.026,163.294 433.019,163.294 433.019,171.798 
				416.011,171.798 416.011,163.294 399.005,163.294 399.005,171.798 381.995,171.798 381.995,163.294 364.987,163.294 
				364.987,171.798 347.979,171.798 347.979,163.294 330.972,163.294 330.972,171.798 313.965,171.798 313.965,163.294 
				296.955,163.294 296.955,171.798 279.947,171.798 279.947,163.294 262.939,163.294 262.939,171.798 245.932,171.798 
				245.932,163.294 228.924,163.294 228.924,171.798 211.916,171.798 211.916,163.294 194.908,163.294 194.908,171.798 
				177.9,171.798 177.9,163.294 160.893,163.294 160.893,171.798 143.885,171.798 143.885,163.294 126.877,163.294 126.877,171.798 
				109.869,171.798 109.869,163.294 92.861,163.294 92.861,171.798 75.854,171.798 75.854,163.294 58.846,163.294 58.846,171.798 
				41.838,171.798 41.838,163.294 24.83,163.294 24.83,171.798 2.152,171.798 2.152,163.294 -12.021,163.294 -12.021,146.286 
				-20.524,146.286 -20.524,120.774 -12.021,120.774 -12.021,103.766 -20.524,103.766 -20.524,86.759 -12.021,86.759 
				-12.021,69.751 -20.524,69.751 -20.524,52.743 -12.021,52.743 -12.021,35.735 -20.524,35.735 -20.524,18.727 -12.021,18.727 
				-12.021,1.72 -20.524,1.72 -20.524,-15.289 -12.021,-15.289 -12.021,-32.297 -20.524,-32.297 -20.524,-49.305 -12.021,-49.305 
				-12.021,-66.313 -20.524,-66.313 -20.524,-83.32 -12.021,-83.32 -12.021,-100.328 -20.524,-100.328 -20.524,-117.336 
				-12.021,-117.336 -12.021,-134.344 -20.524,-134.344 -20.524,-159.856 -12.021,-159.856 			"/>
		</g>
	</g>
	<g>
		<g>
			<path fill="none" stroke="#010101" stroke-width="0.25" d="M249.848,56.707c0,1.656-0.549,3-1.223,3H46.263
				c-0.677,0-1.225-1.344-1.225-3l0,0c0-1.657,0.548-3,1.225-3h202.362C249.301,53.707,249.848,55.05,249.848,56.707L249.848,56.707
				z"/>
			<path fill="none" stroke="#010101" stroke-width="0.25" d="M249.848,97.373c0,1.656-0.549,3-1.223,3H46.263
				c-0.677,0-1.225-1.344-1.225-3l0,0c0-1.656,0.548-3,1.225-3h202.362C249.301,94.373,249.848,95.717,249.848,97.373
				L249.848,97.373z"/>
			<path fill="none" stroke="#010101" stroke-width="0.25" d="M249.848,138.04c0,1.656-0.549,3-1.223,3H46.263
				c-0.677,0-1.225-1.344-1.225-3l0,0c0-1.656,0.548-3,1.225-3h202.362C249.301,135.04,249.848,136.384,249.848,138.04
				L249.848,138.04z"/>
			<path fill="none" stroke="#010101" stroke-width="0.25" d="M249.848,260.04c0,1.656-0.549,3-1.223,3H46.263
				c-0.677,0-1.225-1.344-1.225-3l0,0c0-1.656,0.548-3,1.225-3h202.362C249.301,257.04,249.848,258.384,249.848,260.04
				L249.848,260.04z"/>
			<path fill="none" stroke="#010101" stroke-width="0.25" d="M249.848,219.374c0,1.656-0.549,3-1.223,3H46.263
				c-0.677,0-1.225-1.344-1.225-3l0,0c0-1.656,0.548-3,1.225-3h202.362C249.301,216.374,249.848,217.718,249.848,219.374
				L249.848,219.374z"/>
			<path fill="none" stroke="#010101" stroke-width="0.25" d="M249.848,178.707c0,1.656-0.549,3-1.223,3H46.263
				c-0.677,0-1.225-1.344-1.225-3l0,0c0-1.656,0.548-3,1.225-3h202.362C249.301,175.707,249.848,177.051,249.848,178.707
				L249.848,178.707z"/>
			<path fill="none" stroke="#010101" stroke-width="0.25" d="M249.848,300.707c0,1.656-0.549,3-1.223,3H46.263
				c-0.677,0-1.225-1.344-1.225-3l0,0c0-1.656,0.548-3,1.225-3h202.362C249.301,297.707,249.848,299.051,249.848,300.707
				L249.848,300.707z"/>
		</g>
		<g>
			<path fill="none" stroke="#010101" stroke-width="0.25" d="M542.848,56.707c0,1.656-0.547,3-1.221,3H339.262
				c-0.674,0-1.223-1.344-1.223-3l0,0c0-1.657,0.549-3,1.223-3h202.365C542.302,53.707,542.848,55.05,542.848,56.707L542.848,56.707
				z"/>
			<path fill="none" stroke="#010101" stroke-width="0.25" d="M542.848,97.373c0,1.656-0.547,3-1.221,3H339.262
				c-0.674,0-1.223-1.344-1.223-3l0,0c0-1.656,0.549-3,1.223-3h202.365C542.302,94.373,542.848,95.717,542.848,97.373
				L542.848,97.373z"/>
			<path fill="none" stroke="#010101" stroke-width="0.25" d="M542.848,138.04c0,1.656-0.547,3-1.221,3H339.262
				c-0.674,0-1.223-1.344-1.223-3l0,0c0-1.656,0.549-3,1.223-3h202.365C542.302,135.04,542.848,136.384,542.848,138.04
				L542.848,138.04z"/>
			<path fill="none" stroke="#010101" stroke-width="0.25" d="M542.848,260.04c0,1.656-0.547,3-1.221,3H339.262
				c-0.674,0-1.223-1.344-1.223-3l0,0c0-1.656,0.549-3,1.223-3h202.365C542.302,257.04,542.848,258.384,542.848,260.04
				L542.848,260.04z"/>
			<path fill="none" stroke="#010101" stroke-width="0.25" d="M542.848,219.374c0,1.656-0.547,3-1.221,3H339.262
				c-0.674,0-1.223-1.344-1.223-3l0,0c0-1.656,0.549-3,1.223-3h202.365C542.302,216.374,542.848,217.718,542.848,219.374
				L542.848,219.374z"/>
			<path fill="none" stroke="#010101" stroke-width="0.25" d="M542.848,178.707c0,1.656-0.547,3-1.221,3H339.262
				c-0.674,0-1.223-1.344-1.223-3l0,0c0-1.656,0.549-3,1.223-3h202.365C542.302,175.707,542.848,177.051,542.848,178.707
				L542.848,178.707z"/>
			<path fill="none" stroke="#010101" stroke-width="0.25" d="M542.848,300.707c0,1.656-0.547,3-1.221,3H339.262
				c-0.674,0-1.223-1.344-1.223-3l0,0c0-1.656,0.549-3,1.223-3h202.365C542.302,297.707,542.848,299.051,542.848,300.707
				L542.848,300.707z"/>
		</g>
	</g>
</g>
<g>
	<path fill="#FFFFFF" d="M185.562,434.029c-11.024,11.023-20.044,7.288-20.044-8.304V408.42c0-15.591,12.756-28.347,28.347-28.347
		h17.307c15.592,0,19.327,9.02,8.304,20.044L185.562,434.029z"/>
	<path fill="none" stroke="#000000" stroke-width="0.25" d="M185.562,434.029c-11.024,11.023-20.044,7.288-20.044-8.304V408.42
		c0-15.591,12.756-28.347,28.347-28.347h17.307c15.592,0,19.327,9.02,8.304,20.044L185.562,434.029z"/>
</g>
<g>
	<path fill="#FFFFFF" d="M260.062,429.529c-11.024,11.023-20.044,7.288-20.044-8.304V403.92c0-15.591,12.756-28.347,28.347-28.347
		h17.307c15.592,0,19.327,9.02,8.304,20.044L260.062,429.529z"/>
	<path fill="none" stroke="#000000" stroke-width="0.25" d="M260.062,429.529c-11.024,11.023-20.044,7.288-20.044-8.304V403.92
		c0-15.591,12.756-28.347,28.347-28.347h17.307c15.592,0,19.327,9.02,8.304,20.044L260.062,429.529z"/>
</g>
<g>
	<path fill="#FFFFFF" d="M331.062,432.529c-11.024,11.023-20.044,7.288-20.044-8.304V406.92c0-15.591,12.756-28.347,28.347-28.347
		h17.308c15.591,0,19.326,9.02,8.303,20.044L331.062,432.529z"/>
	<path fill="none" stroke="#000000" stroke-width="0.25" d="M331.062,432.529c-11.024,11.023-20.044,7.288-20.044-8.304V406.92
		c0-15.591,12.756-28.347,28.347-28.347h17.308c15.591,0,19.326,9.02,8.303,20.044L331.062,432.529z"/>
</g>
<g>
	<path fill="#FFFFFF" d="M400.062,431.529c-11.024,11.023-20.044,7.288-20.044-8.304V405.92c0-15.591,12.756-28.347,28.347-28.347
		h17.308c15.591,0,19.326,9.02,8.303,20.044L400.062,431.529z"/>
	<path fill="none" stroke="#000000" stroke-width="0.25" d="M400.062,431.529c-11.024,11.023-20.044,7.288-20.044-8.304V405.92
		c0-15.591,12.756-28.347,28.347-28.347h17.308c15.591,0,19.326,9.02,8.303,20.044L400.062,431.529z"/>
</g>
<g>
	<path fill="#FFFFFF" d="M183.062,518.529c-11.024,11.023-20.044,7.288-20.044-8.304V492.92c0-15.591,12.756-28.347,28.347-28.347
		h17.307c15.592,0,19.327,9.02,8.304,20.044L183.062,518.529z"/>
	<path fill="none" stroke="#000000" stroke-width="0.25" d="M183.062,518.529c-11.024,11.023-20.044,7.288-20.044-8.304V492.92
		c0-15.591,12.756-28.347,28.347-28.347h17.307c15.592,0,19.327,9.02,8.304,20.044L183.062,518.529z"/>
</g>
<g>
	<path fill="#FFFFFF" d="M254.062,513.529c-11.024,11.023-20.044,7.288-20.044-8.304V487.92c0-15.591,12.756-28.347,28.347-28.347
		h17.307c15.592,0,19.327,9.02,8.304,20.044L254.062,513.529z"/>
	<path fill="none" stroke="#000000" stroke-width="0.25" d="M254.062,513.529c-11.024,11.023-20.044,7.288-20.044-8.304V487.92
		c0-15.591,12.756-28.347,28.347-28.347h17.307c15.592,0,19.327,9.02,8.304,20.044L254.062,513.529z"/>
</g>
<g>
	<path fill="#FFFFFF" d="M323.062,510.529c-11.024,11.023-20.044,7.288-20.044-8.304V484.92c0-15.591,12.756-28.347,28.347-28.347
		h17.308c15.591,0,19.326,9.02,8.303,20.044L323.062,510.529z"/>
	<path fill="none" stroke="#000000" stroke-width="0.25" d="M323.062,510.529c-11.024,11.023-20.044,7.288-20.044-8.304V484.92
		c0-15.591,12.756-28.347,28.347-28.347h17.308c15.591,0,19.326,9.02,8.303,20.044L323.062,510.529z"/>
</g>
<g>
	<path fill="#FFFFFF" d="M391.062,506.529c-11.024,11.023-20.044,7.288-20.044-8.304V480.92c0-15.591,12.756-28.347,28.347-28.347
		h17.308c15.591,0,19.326,9.02,8.303,20.044L391.062,506.529z"/>
	<path fill="none" stroke="#000000" stroke-width="0.25" d="M391.062,506.529c-11.024,11.023-20.044,7.288-20.044-8.304V480.92
		c0-15.591,12.756-28.347,28.347-28.347h17.308c15.591,0,19.326,9.02,8.303,20.044L391.062,506.529z"/>
</g>
</svg>
