<?xml version="1.0" encoding="utf-8"?>
<!-- Generator: Adobe Illustrator 13.0.0, SVG Export Plug-In . SVG Version: 6.00 Build 14948)  -->
<!DOCTYPE svg PUBLIC "-//W3C//DTD SVG 1.1//EN" "http://www.w3.org/Graphics/SVG/1.1/DTD/svg11.dtd">
<svg version="1.1" id="Layer_1" xmlns="http://www.w3.org/2000/svg" xmlns:xlink="http://www.w3.org/1999/xlink" x="0px" y="0px"
	 width="584.188px" height="769.918px" viewBox="0 0 584.188 769.918" enable-background="new 0 0 584.188 769.918"
	 xml:space="preserve">
<g>
	<polyline fill="#010101" points="561.386,0.25 584.063,0.25 584.063,0 561.386,0 	"/>
	<polyline fill="#010101" points="0.125,0.25 22.802,0.25 22.802,0 0.125,0 	"/>
	<path d="M493.263,104.004h-0.125c0,1.922-0.779,3.662-2.039,4.922c-1.26,1.26-2.999,2.039-4.922,2.039s-3.662-0.779-4.922-2.039
		c-1.26-1.26-2.039-3-2.039-4.922c0-1.923,0.779-3.662,2.039-4.922c1.26-1.26,2.999-2.039,4.922-2.039s3.662,0.779,4.922,2.039
		c1.26,1.26,2.039,3,2.039,4.922H493.263h0.125c0-3.983-3.229-7.211-7.211-7.211s-7.211,3.228-7.211,7.211s3.229,7.211,7.211,7.211
		s7.211-3.228,7.211-7.211H493.263z"/>
	<path d="M351.81,107.427h0.125c0-1.467,0.54-2.794,1.411-3.752c0.871-0.958,2.069-1.548,3.393-1.548h15.23
		c1.322,0,2.521,0.589,3.392,1.548c0.871,0.958,1.411,2.285,1.411,3.752s-0.54,2.793-1.411,3.751
		c-0.871,0.958-2.069,1.548-3.392,1.548h-15.23c-1.323,0-2.521-0.589-3.393-1.548c-0.871-0.958-1.411-2.284-1.411-3.751H351.81
		h-0.125c0.005,3.056,2.253,5.547,5.054,5.549h15.23c2.8-0.002,5.048-2.493,5.053-5.549c-0.005-3.057-2.253-5.548-5.053-5.55h-15.23
		c-2.801,0.002-5.049,2.493-5.054,5.55H351.81z"/>
	<path d="M408.598,110.5l-5.538-6.792l-0.097,0.079h0.125c0-3.774,0-7.547,0-11.32h-0.125v0.125c14.769,0,29.537,0,44.306,0v-0.125
		h-0.125c0,4.151,0,8.301,0,12.452h0.125l-0.089-0.087l-5.539,5.66l0.089,0.087v-0.125c-11.077,0-22.152,0-33.229,0l-0.125,0.125
		l0.125,0.125c11.076,0,22.151,0,33.229,0l0.089-0.038l5.539-5.66l0.036-0.087c0-4.151,0-8.301,0-12.452l-0.036-0.088l-0.089-0.037
		c-14.769,0-29.537,0-44.306,0l-0.089,0.037l-0.036,0.088c0,3.773,0,7.546,0,11.32l0.028,0.079l5.538,6.792l0.176,0.018
		L408.598,110.5z"/>
	<polyline points="291.969,418.235 291.969,423.905 292.094,424.03 292.219,423.905 292.219,418.235 292.094,418.11 
		291.969,418.235 	"/>
	<polyline fill="#010101" points="139.023,769.668 122.015,769.668 122.015,769.918 139.023,769.918 	"/>
	<polyline fill="#010101" points="462.172,769.668 445.164,769.668 445.164,769.918 462.172,769.918 	"/>
	<path d="M127.24,713.256h0.125c0.001-0.708,0.583-1.29,1.292-1.291h45.021c0.709,0.001,1.291,0.583,1.292,1.291v37.246
		c-0.001,0.71-0.583,1.292-1.292,1.293h-45.021c-0.709-0.001-1.291-0.583-1.292-1.293v-37.246H127.24h-0.125v37.246
		c0,0.849,0.693,1.542,1.542,1.543h45.021c0.849-0.001,1.542-0.694,1.542-1.543v-37.246c0-0.847-0.693-1.54-1.542-1.541h-45.021
		c-0.849,0.001-1.542,0.694-1.542,1.541H127.24z"/>
	<path d="M182.615,708.86h0.125c0.003-1.491,1.219-2.708,2.71-2.711h37.339c1.49,0.003,2.707,1.22,2.71,2.711v40.674
		c-0.003,1.491-1.22,2.708-2.71,2.711h-37.339c-1.491-0.003-2.707-1.22-2.71-2.711V708.86H182.615h-0.125v40.674
		c0,1.63,1.33,2.961,2.96,2.961h37.339c1.629,0,2.959-1.331,2.96-2.961V708.86c0-1.63-1.331-2.961-2.96-2.961h-37.339
		c-1.63,0-2.959,1.331-2.96,2.961H182.615z"/>
	<path d="M233.531,708.86h0.125c0.003-1.491,1.219-2.708,2.71-2.711h37.338c1.49,0.003,2.707,1.22,2.71,2.711v40.674
		c-0.003,1.491-1.22,2.708-2.71,2.711h-37.338c-1.491-0.003-2.707-1.22-2.71-2.711V708.86H233.531h-0.125v40.674
		c0,1.63,1.33,2.961,2.96,2.961h37.338c1.629,0,2.959-1.331,2.96-2.961V708.86c0-1.63-1.331-2.961-2.96-2.961h-37.338
		c-1.63,0-2.959,1.331-2.96,2.961H233.531z"/>
	<polygon points="141.113,682.375 142.948,682.375 142.948,688.924 146.162,688.924 146.162,690.459 141.113,690.459 	"/>
	<path d="M149.199,688.384l-0.576,2.075h-1.895l2.47-8.084h2.399l2.506,8.084h-1.967l-0.624-2.075H149.199z M151.251,687.017
		l-0.504-1.715c-0.144-0.479-0.288-1.079-0.408-1.559h-0.024c-0.12,0.479-0.24,1.091-0.372,1.559l-0.479,1.715H151.251z"/>
	<path d="M155.189,690.459v-8.084h2.135l1.679,2.963c0.48,0.852,0.959,1.858,1.319,2.771h0.036c-0.12-1.067-0.156-2.159-0.156-3.382
		v-2.352h1.679v8.084h-1.919l-1.727-3.118c-0.48-0.863-1.007-1.907-1.403-2.854l-0.036,0.012c0.048,1.067,0.072,2.207,0.072,3.526
		v2.435H155.189z"/>
	<path d="M197.209,682.375v4.654c0,1.391,0.527,2.099,1.463,2.099c0.959,0,1.487-0.672,1.487-2.099v-4.654h1.823v4.534
		c0,2.494-1.259,3.682-3.37,3.682c-2.039,0-3.238-1.128-3.238-3.706v-4.51H197.209z"/>
	<path d="M203.63,688.577c0.492,0.252,1.247,0.504,2.027,0.504c0.839,0,1.283-0.348,1.283-0.876c0-0.503-0.384-0.792-1.355-1.14
		c-1.343-0.467-2.219-1.211-2.219-2.387c0-1.379,1.151-2.434,3.058-2.434c0.912,0,1.583,0.191,2.063,0.407l-0.408,1.476
		c-0.324-0.156-0.9-0.385-1.691-0.385s-1.175,0.36-1.175,0.78c0,0.516,0.456,0.743,1.5,1.14c1.427,0.527,2.099,1.271,2.099,2.41
		c0,1.355-1.043,2.519-3.262,2.519c-0.923,0-1.835-0.252-2.291-0.503L203.63,688.577z"/>
	<path d="M210.05,682.484c0.48-0.097,1.451-0.168,2.363-0.168c1.115,0,1.799,0.108,2.387,0.456c0.563,0.3,0.971,0.852,0.971,1.583
		c0,0.72-0.419,1.392-1.331,1.728v0.023c0.923,0.252,1.607,0.947,1.607,1.99c0,0.732-0.335,1.308-0.839,1.716
		c-0.588,0.468-1.571,0.731-3.178,0.731c-0.899,0-1.571-0.061-1.979-0.12V682.484z M211.861,685.579h0.6
		c0.959,0,1.475-0.396,1.475-0.996c0-0.611-0.468-0.936-1.295-0.936c-0.396,0-0.624,0.024-0.78,0.049V685.579z M211.861,689.165
		c0.18,0.023,0.396,0.023,0.708,0.023c0.828,0,1.559-0.324,1.559-1.163c0-0.815-0.731-1.14-1.643-1.14h-0.624V689.165z"/>
	<path d="M246.209,682.375v4.654c0,1.391,0.527,2.099,1.463,2.099c0.959,0,1.487-0.672,1.487-2.099v-4.654h1.823v4.534
		c0,2.494-1.259,3.682-3.37,3.682c-2.039,0-3.238-1.128-3.238-3.706v-4.51H246.209z"/>
	<path d="M252.63,688.577c0.492,0.252,1.247,0.504,2.027,0.504c0.839,0,1.283-0.348,1.283-0.876c0-0.503-0.384-0.792-1.355-1.14
		c-1.343-0.467-2.219-1.211-2.219-2.387c0-1.379,1.151-2.434,3.058-2.434c0.912,0,1.583,0.191,2.063,0.407l-0.408,1.476
		c-0.324-0.156-0.9-0.385-1.691-0.385s-1.175,0.36-1.175,0.78c0,0.516,0.456,0.743,1.5,1.14c1.427,0.527,2.099,1.271,2.099,2.41
		c0,1.355-1.043,2.519-3.262,2.519c-0.923,0-1.835-0.252-2.291-0.503L252.63,688.577z"/>
	<path d="M259.05,682.484c0.48-0.097,1.451-0.168,2.363-0.168c1.115,0,1.799,0.108,2.387,0.456c0.563,0.3,0.971,0.852,0.971,1.583
		c0,0.72-0.419,1.392-1.331,1.728v0.023c0.923,0.252,1.607,0.947,1.607,1.99c0,0.732-0.335,1.308-0.839,1.716
		c-0.588,0.468-1.571,0.731-3.178,0.731c-0.899,0-1.571-0.061-1.979-0.12V682.484z M260.861,685.579h0.6
		c0.959,0,1.475-0.396,1.475-0.996c0-0.611-0.468-0.936-1.295-0.936c-0.396,0-0.624,0.024-0.78,0.049V685.579z M260.861,689.165
		c0.18,0.023,0.396,0.023,0.708,0.023c0.828,0,1.559-0.324,1.559-1.163c0-0.815-0.731-1.14-1.643-1.14h-0.624V689.165z"/>
	<path d="M72.18,18.484c0.564-0.096,1.355-0.168,2.471-0.168c1.127,0,1.931,0.216,2.471,0.647c0.516,0.408,0.863,1.08,0.863,1.871
		s-0.264,1.463-0.744,1.919c-0.624,0.588-1.547,0.852-2.626,0.852c-0.24,0-0.456-0.012-0.624-0.036v2.891H72.18V18.484z
		 M73.991,22.154c0.156,0.036,0.348,0.048,0.612,0.048c0.971,0,1.571-0.492,1.571-1.319c0-0.743-0.516-1.187-1.427-1.187
		c-0.372,0-0.624,0.036-0.756,0.072V22.154z"/>
	<path d="M84.597,23.461c0,2.147-1.523,3.13-3.094,3.13c-1.715,0-3.034-1.127-3.034-3.022c0-1.895,1.247-3.106,3.13-3.106
		C83.398,20.463,84.597,21.698,84.597,23.461z M80.352,23.521c0,1.007,0.42,1.763,1.199,1.763c0.708,0,1.164-0.708,1.164-1.763
		c0-0.875-0.336-1.763-1.164-1.763C80.676,21.758,80.352,22.658,80.352,23.521z"/>
	<path d="M86.88,20.595l0.468,2.398c0.12,0.6,0.24,1.259,0.336,1.931h0.024c0.12-0.672,0.288-1.343,0.432-1.919l0.624-2.411h1.439
		l0.588,2.339c0.156,0.66,0.312,1.319,0.432,1.991h0.024c0.084-0.672,0.204-1.331,0.336-2.003l0.504-2.327h1.787l-1.799,5.865
		h-1.715l-0.551-2.063c-0.144-0.576-0.252-1.091-0.372-1.823H89.41c-0.108,0.731-0.228,1.283-0.384,1.823l-0.588,2.063h-1.715
		l-1.703-5.865H86.88z"/>
	<path d="M95.952,24.109c0.06,0.755,0.804,1.115,1.655,1.115c0.624,0,1.127-0.084,1.619-0.24l0.24,1.235
		c-0.6,0.24-1.331,0.372-2.123,0.372c-1.991,0-3.13-1.163-3.13-2.998c0-1.487,0.923-3.13,2.962-3.13
		c1.895,0,2.615,1.475,2.615,2.926c0,0.312-0.036,0.588-0.06,0.72H95.952z M98.099,22.861c0-0.444-0.192-1.187-1.032-1.187
		c-0.768,0-1.079,0.695-1.127,1.187H98.099z"/>
	<path d="M100.885,22.526c0-0.864-0.024-1.427-0.048-1.931h1.571l0.06,1.08h0.048c0.3-0.852,1.02-1.211,1.583-1.211
		c0.168,0,0.252,0,0.384,0.024v1.727c-0.132-0.036-0.288-0.06-0.492-0.06c-0.671,0-1.127,0.36-1.248,0.923
		c-0.024,0.12-0.036,0.264-0.036,0.408v2.975h-1.823V22.526z"/>
	<path d="M68.181,115.582v-1.104l1.007-0.911c1.703-1.523,2.531-2.399,2.555-3.311c0-0.636-0.384-1.139-1.284-1.139
		c-0.671,0-1.259,0.336-1.667,0.647l-0.516-1.307c0.588-0.444,1.499-0.804,2.555-0.804c1.763,0,2.734,1.032,2.734,2.447
		c0,1.307-0.947,2.351-2.075,3.358l-0.72,0.6v0.024h2.938v1.499H68.181z"/>
	<path d="M75.165,113.794c0.324,0.168,1.067,0.48,1.811,0.48c0.947,0,1.427-0.456,1.427-1.043c0-0.768-0.768-1.116-1.571-1.116
		h-0.744v-1.307h0.708c0.612-0.012,1.392-0.24,1.392-0.899c0-0.468-0.384-0.815-1.151-0.815c-0.636,0-1.308,0.276-1.631,0.468
		l-0.372-1.319c0.468-0.3,1.403-0.588,2.411-0.588c1.667,0,2.59,0.875,2.59,1.943c0,0.828-0.468,1.475-1.427,1.811v0.024
		c0.936,0.168,1.691,0.875,1.691,1.895c0,1.379-1.211,2.387-3.19,2.387c-1.007,0-1.859-0.264-2.315-0.552L75.165,113.794z"/>
	<path d="M87.258,111.648c0,2.411-0.972,4.065-2.962,4.065c-2.015,0-2.902-1.811-2.915-4.018c0-2.255,0.959-4.042,2.974-4.042
		C86.442,107.654,87.258,109.513,87.258,111.648z M83.216,111.696c-0.012,1.787,0.42,2.639,1.127,2.639s1.091-0.888,1.091-2.663
		c0-1.727-0.372-2.639-1.104-2.639C83.659,109.033,83.203,109.885,83.216,111.696z"/>
	<path d="M90.355,115.582l-2.591-8.083h2.003l0.983,3.418c0.276,0.959,0.528,1.883,0.72,2.891h0.036
		c0.204-0.972,0.456-1.931,0.731-2.854l1.031-3.454h1.943l-2.722,8.083H90.355z"/>
	<path d="M100.387,113.507l-0.576,2.075h-1.895l2.47-8.083h2.399l2.506,8.083h-1.967l-0.624-2.075H100.387z M102.438,112.14
		l-0.504-1.715c-0.144-0.479-0.288-1.079-0.408-1.559h-0.024c-0.12,0.48-0.24,1.091-0.372,1.559l-0.479,1.715H102.438z"/>
	<path d="M112.013,115.354c-0.336,0.168-1.092,0.36-2.075,0.36c-2.794,0-4.233-1.751-4.233-4.054c0-2.758,1.967-4.293,4.414-4.293
		c0.947,0,1.667,0.192,1.991,0.36l-0.372,1.451c-0.372-0.156-0.888-0.3-1.535-0.3c-1.451,0-2.579,0.875-2.579,2.674
		c0,1.619,0.959,2.639,2.59,2.639c0.552,0,1.164-0.12,1.523-0.264L112.013,115.354z"/>
	<path d="M355.895,51.365c-0.035-0.972-0.072-2.147-0.072-3.322h-0.035c-0.252,1.031-0.588,2.183-0.899,3.13l-0.983,3.154h-1.428
		l-0.863-3.118c-0.264-0.959-0.539-2.111-0.731-3.167h-0.024c-0.048,1.091-0.084,2.339-0.144,3.346l-0.144,3.07h-1.691l0.516-8.083
		h2.435l0.792,2.698c0.252,0.924,0.504,1.943,0.684,2.891h0.035c0.229-0.936,0.504-2.003,0.768-2.902l0.863-2.687h2.387l0.444,8.083
		h-1.787L355.895,51.365z"/>
	<path d="M361.106,46.963c0,0.504-0.383,0.912-0.983,0.912c-0.575,0-0.959-0.408-0.947-0.912c-0.012-0.527,0.372-0.923,0.96-0.923
		S361.094,46.436,361.106,46.963z M359.223,54.459v-5.865h1.823v5.865H359.223z"/>
	<path d="M366.912,54.315c-0.324,0.144-0.936,0.276-1.631,0.276c-1.896,0-3.106-1.163-3.106-3.01c0-1.715,1.175-3.118,3.358-3.118
		c0.479,0,1.007,0.084,1.391,0.228l-0.287,1.355c-0.217-0.096-0.54-0.18-1.02-0.18c-0.96,0-1.584,0.684-1.572,1.643
		c0,1.079,0.721,1.643,1.607,1.643c0.432,0,0.768-0.072,1.044-0.192L366.912,54.315z"/>
	<path d="M367.922,50.526c0-0.864-0.023-1.427-0.048-1.931h1.571l0.061,1.08h0.047c0.301-0.852,1.02-1.211,1.584-1.211
		c0.168,0,0.252,0,0.383,0.024v1.727c-0.131-0.036-0.287-0.06-0.491-0.06c-0.672,0-1.128,0.36-1.247,0.923
		c-0.024,0.12-0.036,0.264-0.036,0.408v2.975h-1.823V50.526z"/>
	<path d="M378.18,51.461c0,2.147-1.523,3.13-3.095,3.13c-1.716,0-3.034-1.127-3.034-3.022c0-1.895,1.247-3.106,3.13-3.106
		C376.981,48.463,378.18,49.698,378.18,51.461z M373.934,51.521c0,1.007,0.42,1.763,1.199,1.763c0.707,0,1.164-0.708,1.164-1.763
		c0-0.875-0.336-1.763-1.164-1.763C374.258,49.758,373.934,50.658,373.934,51.521z"/>
	<path d="M355.082,60.776v4.653c0,1.391,0.527,2.099,1.463,2.099c0.959,0,1.486-0.672,1.486-2.099v-4.653h1.823v4.533
		c0,2.495-1.259,3.682-3.37,3.682c-2.039,0-3.238-1.127-3.238-3.706v-4.509H355.082z"/>
	<path d="M361.502,66.977c0.492,0.251,1.248,0.503,2.027,0.503c0.84,0,1.283-0.348,1.283-0.875c0-0.503-0.384-0.792-1.355-1.139
		c-1.343-0.468-2.219-1.211-2.219-2.387c0-1.379,1.152-2.435,3.059-2.435c0.912,0,1.583,0.192,2.063,0.408l-0.407,1.475
		c-0.324-0.156-0.899-0.384-1.691-0.384s-1.175,0.36-1.175,0.78c0,0.516,0.455,0.743,1.499,1.139
		c1.427,0.528,2.099,1.271,2.099,2.411c0,1.355-1.043,2.519-3.262,2.519c-0.924,0-1.836-0.252-2.291-0.503L361.502,66.977z"/>
	<path d="M367.922,60.884c0.48-0.096,1.451-0.168,2.363-0.168c1.115,0,1.799,0.108,2.387,0.456c0.563,0.3,0.971,0.852,0.971,1.583
		c0,0.719-0.419,1.391-1.33,1.727v0.024c0.923,0.252,1.606,0.947,1.606,1.991c0,0.731-0.335,1.308-0.839,1.715
		c-0.588,0.468-1.572,0.731-3.179,0.731c-0.899,0-1.571-0.06-1.979-0.12V60.884z M369.734,63.978h0.6
		c0.96,0,1.476-0.396,1.476-0.996c0-0.611-0.469-0.935-1.295-0.935c-0.396,0-0.625,0.024-0.78,0.048V63.978z M369.734,67.564
		c0.18,0.024,0.396,0.024,0.708,0.024c0.827,0,1.559-0.324,1.559-1.163c0-0.815-0.731-1.14-1.643-1.14h-0.624V67.564z"/>
	<polygon points="412.016,60.776 412.016,63.883 415.026,63.883 415.026,60.776 416.849,60.776 416.849,68.86 415.026,68.86 
		415.026,65.478 412.016,65.478 412.016,68.86 410.18,68.86 410.18,60.776 	"/>
	<path d="M418.448,60.884c0.672-0.108,1.548-0.168,2.471-0.168c1.535,0,2.53,0.276,3.31,0.864c0.84,0.624,1.367,1.619,1.367,3.046
		c0,1.547-0.563,2.615-1.343,3.274c-0.852,0.708-2.146,1.043-3.729,1.043c-0.947,0-1.619-0.06-2.075-0.12V60.884z M420.283,67.48
		c0.156,0.036,0.408,0.036,0.636,0.036c1.655,0.012,2.734-0.899,2.734-2.831c0.013-1.679-0.972-2.566-2.542-2.566
		c-0.408,0-0.672,0.036-0.828,0.072V67.48z"/>
	<path d="M433.637,65.766c-0.036-0.972-0.072-2.147-0.072-3.322h-0.035c-0.252,1.031-0.588,2.183-0.9,3.13l-0.983,3.154h-1.427
		l-0.863-3.118c-0.264-0.959-0.54-2.111-0.732-3.167H428.6c-0.049,1.091-0.084,2.339-0.145,3.346l-0.144,3.07h-1.69l0.516-8.083
		h2.434l0.792,2.698c0.252,0.924,0.504,1.943,0.684,2.891h0.036c0.229-0.936,0.504-2.003,0.768-2.902l0.863-2.687h2.387l0.443,8.083
		h-1.787L433.637,65.766z"/>
	<rect x="436.952" y="60.776" width="1.835" height="8.083"/>
	<path d="M468.873,52.385l-0.575,2.075h-1.895l2.47-8.083h2.399l2.507,8.083h-1.967l-0.624-2.075H468.873z M470.925,51.018
		l-0.504-1.715c-0.144-0.479-0.288-1.079-0.407-1.559h-0.024c-0.12,0.48-0.24,1.091-0.372,1.559l-0.479,1.715H470.925z"/>
	<path d="M474.731,50.466c0-0.732-0.023-1.355-0.048-1.871h1.583l0.084,0.804h0.036c0.239-0.372,0.839-0.936,1.812-0.936
		c1.199,0,2.098,0.792,2.098,2.519v3.478h-1.822v-3.25c0-0.756-0.264-1.271-0.924-1.271c-0.504,0-0.803,0.348-0.924,0.684
		c-0.047,0.12-0.071,0.288-0.071,0.456v3.382h-1.823V50.466z"/>
	<path d="M486.656,53.032c0,0.564,0.023,1.104,0.084,1.427h-1.643l-0.108-0.588h-0.036c-0.384,0.468-0.983,0.72-1.68,0.72
		c-1.187,0-1.895-0.863-1.895-1.799c0-1.523,1.367-2.255,3.442-2.243v-0.084c0-0.312-0.168-0.756-1.067-0.756
		c-0.6,0-1.235,0.204-1.619,0.444l-0.336-1.175c0.408-0.228,1.211-0.516,2.279-0.516c1.955,0,2.578,1.151,2.578,2.53V53.032z
		 M484.881,51.689c-0.959-0.012-1.703,0.216-1.703,0.923c0,0.468,0.313,0.696,0.72,0.696c0.456,0,0.827-0.3,0.948-0.672
		c0.023-0.096,0.035-0.204,0.035-0.312V51.689z"/>
	<rect x="488.099" y="45.944" width="1.823" height="8.515"/>
	<path d="M497.192,51.461c0,2.147-1.523,3.13-3.094,3.13c-1.716,0-3.035-1.127-3.035-3.022c0-1.895,1.248-3.106,3.131-3.106
		C495.992,48.463,497.192,49.698,497.192,51.461z M492.946,51.521c0,1.007,0.42,1.763,1.199,1.763c0.708,0,1.164-0.708,1.164-1.763
		c0-0.875-0.336-1.763-1.164-1.763C493.27,49.758,492.946,50.658,492.946,51.521z"/>
	<path d="M503.912,53.608c0,1.127-0.229,2.051-0.889,2.639c-0.646,0.552-1.522,0.72-2.387,0.72c-0.768,0-1.582-0.156-2.11-0.456
		l0.36-1.379c0.371,0.216,1.02,0.443,1.703,0.443c0.863,0,1.522-0.468,1.522-1.547v-0.384h-0.024
		c-0.348,0.492-0.911,0.768-1.582,0.768c-1.451,0-2.482-1.175-2.482-2.867c0-1.883,1.223-3.082,2.662-3.082
		c0.803,0,1.307,0.348,1.607,0.828h0.023l0.061-0.696h1.582c-0.023,0.372-0.047,0.863-0.047,1.739V53.608z M502.088,50.981
		c0-0.12-0.012-0.24-0.035-0.336c-0.133-0.479-0.48-0.804-0.984-0.804c-0.659,0-1.199,0.6-1.199,1.667
		c0,0.875,0.432,1.559,1.199,1.559c0.469,0,0.84-0.312,0.96-0.744c0.048-0.132,0.06-0.324,0.06-0.48V50.981z"/>
	<path d="M478.36,66.785l-0.576,2.075h-1.895l2.471-8.083h2.398l2.507,8.083h-1.967l-0.624-2.075H478.36z M480.41,65.417
		l-0.504-1.715c-0.144-0.479-0.287-1.08-0.407-1.559h-0.024c-0.119,0.479-0.239,1.091-0.371,1.559l-0.48,1.715H480.41z"/>
	<polygon points="483.749,69.339 486.316,60.644 487.528,60.644 484.961,69.339 	"/>
	<path d="M490.228,68.859l-2.591-8.083h2.003l0.983,3.418c0.275,0.959,0.527,1.883,0.72,2.891h0.036
		c0.203-0.972,0.455-1.931,0.731-2.854l1.031-3.454h1.942l-2.722,8.083H490.228z"/>
	<path d="M314.415,180.326c-0.22,0.007-0.455,0.088-0.724,0.299c-0.656-0.253-1.293-0.341-1.862,0.175
		c-0.879-0.114-1.164,0.121-1.381,0.396c-0.192-0.004-1.444-0.198-2.017,0.657c-1.443-0.17-1.898,0.849-1.382,1.798
		c-0.294,0.456-0.599,0.906,0.089,1.775c-0.243,0.483-0.093,1.009,0.481,1.645c-0.151,0.68,0.146,1.16,0.681,1.534
		c-0.101,0.931,0.854,1.472,1.139,1.665c0.108,0.543,0.336,1.055,1.426,1.338c0.18,0.809,0.834,0.948,1.469,1.118
		c-2.096,1.218-3.893,2.819-3.881,6.752l-0.307,0.547c-2.402,1.461-4.563,6.157-1.184,9.974c0.221,1.194,0.592,2.053,0.921,3.002
		c0.493,3.828,3.711,5.62,4.56,5.832c1.244,0.947,2.568,1.846,4.361,2.476c1.689,1.742,3.521,2.407,5.361,2.405h0.081
		c1.841,0.001,3.671-0.663,5.361-2.405c1.792-0.63,3.117-1.528,4.36-2.476c0.85-0.212,4.066-2.004,4.561-5.832
		c0.33-0.949,0.7-1.808,0.92-3.002c3.381-3.817,1.219-8.513-1.184-9.974l-0.307-0.548c0.012-3.932-1.785-5.534-3.88-6.752
		c0.634-0.17,1.288-0.31,1.468-1.118c1.089-0.282,1.317-0.795,1.427-1.337c0.284-0.193,1.238-0.734,1.138-1.665
		c0.535-0.375,0.832-0.854,0.681-1.535c0.574-0.635,0.726-1.16,0.481-1.644c0.688-0.869,0.383-1.319,0.088-1.775
		c0.517-0.949,0.062-1.968-1.381-1.798c-0.573-0.855-1.824-0.661-2.018-0.657c-0.216-0.274-0.502-0.51-1.381-0.396
		c-0.568-0.516-1.205-0.428-1.861-0.175c-0.78-0.615-1.296-0.122-1.885,0.064c-0.945-0.309-1.16,0.114-1.624,0.286
		c-1.029-0.218-1.342,0.256-1.835,0.756l-0.574-0.012c-1.553,0.915-2.324,2.778-2.598,3.736c-0.273-0.958-1.043-2.821-2.595-3.736
		l-0.574,0.012c-0.494-0.5-0.808-0.974-1.836-0.756c-0.464-0.172-0.679-0.595-1.624-0.286
		C315.19,180.567,314.834,180.313,314.415,180.326z"/>
	<path fill="#FFFFFF" d="M311.324,184.352c4.119,2.123,6.514,3.842,7.826,5.305c-0.672,2.692-4.178,2.815-5.459,2.74
		c0.263-0.122,0.481-0.269,0.559-0.493c-0.32-0.229-1.461-0.024-2.258-0.472c0.307-0.063,0.449-0.125,0.592-0.351
		c-0.752-0.24-1.563-0.446-2.038-0.844c0.257,0.003,0.497,0.058,0.833-0.176c-0.674-0.362-1.393-0.65-1.951-1.205
		c0.349-0.008,0.725-0.003,0.834-0.132c-0.617-0.382-1.138-0.807-1.568-1.271c0.488,0.059,0.693,0.008,0.811-0.077
		c-0.465-0.478-1.055-0.881-1.336-1.469c0.361,0.125,0.693,0.173,0.932-0.011c-0.158-0.357-0.837-0.568-1.228-1.403
		c0.381,0.037,0.784,0.083,0.866,0c-0.178-0.721-0.48-1.125-0.778-1.545c0.815-0.013,2.051,0.003,1.994-0.065l-0.504-0.516
		c0.797-0.215,1.611,0.034,2.202,0.219c0.266-0.209-0.004-0.475-0.328-0.745c0.677,0.091,1.288,0.246,1.842,0.461
		c0.295-0.268-0.191-0.534-0.428-0.801c1.046,0.199,1.488,0.478,1.929,0.757c0.319-0.307,0.019-0.566-0.196-0.833
		c0.788,0.292,1.193,0.669,1.621,1.041c0.146-0.195,0.368-0.339,0.099-0.811c0.56,0.322,0.981,0.702,1.294,1.128
		c0.346-0.22,0.206-0.521,0.207-0.799c0.582,0.473,0.951,0.977,1.403,1.468c0.091-0.065,0.171-0.291,0.241-0.646
		c1.388,1.347,3.35,4.738,0.504,6.083c-2.42-1.997-5.313-3.448-8.518-4.537L311.324,184.352z"/>
	<path fill="#FFFFFF" d="M333.18,184.352c-4.118,2.123-6.513,3.841-7.824,5.305c0.671,2.692,4.176,2.815,5.457,2.74
		c-0.262-0.122-0.48-0.269-0.559-0.493c0.322-0.229,1.462-0.024,2.258-0.472c-0.306-0.063-0.449-0.125-0.592-0.351
		c0.752-0.24,1.563-0.446,2.039-0.844c-0.258,0.003-0.497,0.058-0.833-0.176c0.673-0.362,1.392-0.65,1.95-1.205
		c-0.348-0.008-0.723-0.003-0.832-0.132c0.616-0.382,1.137-0.807,1.566-1.271c-0.486,0.059-0.693,0.008-0.811-0.077
		c0.467-0.478,1.057-0.881,1.337-1.469c-0.362,0.125-0.692,0.173-0.931-0.011c0.158-0.357,0.836-0.568,1.227-1.403
		c-0.381,0.037-0.785,0.083-0.865,0c0.177-0.721,0.48-1.125,0.777-1.545c-0.814-0.013-2.051,0.003-1.994-0.066l0.504-0.515
		c-0.797-0.215-1.611,0.034-2.203,0.219c-0.266-0.209,0.004-0.475,0.328-0.745c-0.676,0.091-1.288,0.246-1.841,0.46
		c-0.296-0.267,0.192-0.533,0.428-0.8c-1.046,0.198-1.489,0.478-1.929,0.757c-0.319-0.307-0.019-0.566,0.197-0.833
		c-0.789,0.292-1.195,0.669-1.623,1.041c-0.145-0.196-0.367-0.339-0.098-0.812c-0.561,0.323-0.982,0.703-1.294,1.129
		c-0.346-0.221-0.206-0.522-0.208-0.8c-0.582,0.473-0.951,0.977-1.402,1.469c-0.092-0.066-0.171-0.291-0.242-0.647
		c-1.387,1.347-3.348,4.738-0.504,6.083C327.084,186.892,329.976,185.44,333.18,184.352L333.18,184.352z"/>
	<path fill="#FFFFFF" d="M327.24,211.771c0.015,2.513-2.183,4.561-4.908,4.573c-2.725,0.014-4.945-2.013-4.959-4.525v-0.048
		c-0.014-2.513,2.184-4.56,4.908-4.573s4.945,2.013,4.959,4.525V211.771z"/>
	<path fill="#FFFFFF" d="M319.451,198.773c2.045,1.34,2.413,4.376,0.824,6.781c-1.59,2.406-4.537,3.271-6.58,1.931
		c-2.045-1.339-2.414-4.375-0.824-6.781C314.461,198.299,317.407,197.435,319.451,198.773z"/>
	<path fill="#FFFFFF" d="M324.97,198.531c-2.044,1.34-2.413,4.376-0.823,6.781c1.59,2.406,4.535,3.271,6.58,1.931
		c2.044-1.339,2.412-4.375,0.822-6.78C329.959,198.057,327.014,197.192,324.97,198.531z"/>
	<path fill="#FFFFFF" d="M309.235,200.964c2.207-0.592,0.744,9.131-1.051,8.333C306.207,207.708,305.573,203.055,309.235,200.964z"
		/>
	<path fill="#FFFFFF" d="M334.741,200.842c-2.207-0.591-0.745,9.133,1.051,8.334C337.768,207.588,338.405,202.934,334.741,200.842z"
		/>
	<path fill="#FFFFFF" d="M327.242,193.602c3.809-0.643,6.979,1.62,6.851,5.75C333.967,200.936,325.839,193.838,327.242,193.602z"/>
	<path fill="#FFFFFF" d="M316.718,193.48c-3.81-0.644-6.979,1.621-6.851,5.75C309.992,200.814,318.121,193.717,316.718,193.48z"/>
	<path fill="#FFFFFF" d="M322.19,192.518c-2.273-0.06-4.456,1.688-4.461,2.7c-0.006,1.23,1.798,2.49,4.477,2.522
		c2.734,0.02,4.48-1.008,4.488-2.278C326.705,194.022,324.206,192.495,322.19,192.518z"/>
	<path fill="#FFFFFF" d="M322.328,217.758c1.982-0.087,4.642,0.638,4.646,1.6c0.033,0.934-2.411,3.044-4.777,3.003
		c-2.451,0.105-4.854-2.008-4.822-2.74C317.338,218.546,320.359,217.708,322.328,217.758z"/>
	<path fill="#FFFFFF" d="M315.008,212.058c1.41,1.7,2.054,4.688,0.876,5.567c-1.114,0.673-3.819,0.396-5.743-2.367
		c-1.297-2.318-1.13-4.678-0.219-5.37C311.283,209.059,313.388,210.179,315.008,212.058z"/>
	<path fill="#FFFFFF" d="M329.367,211.52c-1.527,1.788-2.377,5.05-1.264,6.1c1.064,0.816,3.924,0.702,6.035-2.228
		c1.533-1.968,1.02-5.255,0.145-6.128c-1.302-1.006-3.17,0.281-4.917,2.254L329.367,211.52z"/>
	<path d="M451.942,180.48c8.267-0.884,13.945,2.127,18.088,6.268c3.72,3.721,6.908,9.241,6.268,17.55
		c-0.853,11.065-10.965,20.345-23.996,19.341c-9.872-0.761-18.463-9.179-19.341-19.161c-0.749-8.507,2.329-13.792,6.267-17.729
		C442.28,183.696,446.004,181.115,451.942,180.48z M440.481,188.719c-2.906,3.098-5.403,7.731-5.373,13.431
		c0.041,7.608,4.401,13.389,8.955,16.296c2.389,1.525,6.485,3.044,10.564,3.044c3.694,0,7.789-1.271,10.566-3.044
		c6.213-3.968,11.041-13.022,8.059-22.385c-2.459-7.717-10.018-14.188-19.878-13.432
		C447.498,183.08,443.547,185.449,440.481,188.719z"/>
	<path d="M446.211,191.763c2.998,2.613,5.487,5.734,8.417,8.417c2.867-2.565,5.611-6.208,8.417-8.238c0,4.545,0,9.533,0,14.685
		c0,1.852,0.279,3.761-1.075,3.761c-1.753,0-1.074-4.329-1.074-6.089c0-2.777,0-4.712,0-6.984
		c-4.796,4.064-9.789,10.537-14.685,14.685C446.211,205.253,446.211,198.508,446.211,191.763z M448.36,206.447
		c0.753-0.235,1.408-1.168,2.328-2.149c0.418-0.444,2.353-1.958,2.328-2.507c-0.006-0.143-1.08-0.889-1.253-1.074
		c-1.266-1.361-2.147-2.711-3.403-3.582C448.36,200.239,448.36,203.343,448.36,206.447z"/>
	<path d="M542.594,202.38c-0.14,0.457-0.449,0.79-0.777,1.118c-2.209,2.202-4.412,4.411-6.617,6.617
		c-0.793,0.795-1.643,0.793-2.44-0.006c-2.275-2.277-4.552-4.553-6.825-6.831c-0.775-0.775-0.774-1.623,0.002-2.4
		c2.288-2.291,4.575-4.581,6.864-6.87c0.744-0.745,1.618-0.745,2.364-0.001c2.219,2.219,4.433,4.44,6.656,6.655
		c0.328,0.328,0.637,0.664,0.773,1.12V202.38z"/>
	<path d="M520.662,223.713c-0.454-0.145-0.781-0.458-1.109-0.787c-2.199-2.212-4.406-4.416-6.61-6.623
		c-0.788-0.79-0.79-1.633-0.002-2.42c2.281-2.283,4.563-4.567,6.845-6.85c0.759-0.759,1.628-0.762,2.383-0.007
		c2.281,2.283,4.563,4.566,6.844,6.851c0.783,0.785,0.786,1.645,0.007,2.426c-2.225,2.226-4.45,4.449-6.67,6.679
		c-0.317,0.318-0.644,0.606-1.086,0.731H520.662z"/>
	<path d="M512.656,196.609c0-2.538,0.024-5.077-0.015-7.615c-0.01-0.734,0.166-1.309,0.727-1.794c0.45-0.39,0.852-0.84,1.273-1.264
		c1.673-1.675,3.344-3.348,5.018-5.021c0.787-0.787,1.635-0.786,2.421,0c2.276,2.276,4.552,4.553,6.826,6.829
		c0.782,0.782,0.781,1.643,0,2.425c-2.69,2.694-5.382,5.389-8.073,8.082c-2.378,2.379-4.754,4.758-7.131,7.137
		c-0.44,0.441-0.831,0.338-0.99-0.272c-0.049-0.189-0.055-0.394-0.055-0.592C512.655,201.887,512.656,199.248,512.656,196.609"/>
	<path d="M507.214,202.111c0,2.329,0.004,4.66-0.005,6.989c0,0.221-0.035,0.455-0.115,0.661c-0.154,0.404-0.447,0.455-0.754,0.149
		c-1.07-1.069-2.139-2.143-3.209-3.213c-1.235-1.238-2.473-2.478-3.708-3.715c-0.511-0.514-0.514-1.225-0.004-1.74
		c2.275-2.302,4.551-4.603,6.828-6.903c0.151-0.151,0.292-0.358,0.548-0.262c0.246,0.093,0.342,0.313,0.376,0.558
		c0.022,0.151,0.039,0.306,0.039,0.458C507.213,197.434,507.213,199.772,507.214,202.111L507.214,202.111L507.214,202.111z"/>
	<path d="M391.813,203.249c-0.719,0.01,0.136,0.37,1.074,0.515c0.26-0.202,0.496-0.406,0.705-0.606
		C393.007,203.301,392.412,203.304,391.813,203.249"/>
	<path d="M395.672,202.287c0.428-0.591,0.74-1.237,0.85-1.906c-0.096,0.477-0.354,0.889-0.598,1.323
		c-1.345,0.846-0.127-0.503-0.002-1.015C394.478,202.508,395.724,201.779,395.672,202.287"/>
	<path d="M397.096,198.581c0.087-1.295-0.255-0.886-0.369-0.392C396.86,198.26,396.967,199.103,397.096,198.581"/>
	<path d="M389.087,180.886c0.384,0.068,0.829,0.121,0.767,0.214C390.273,181.007,390.367,180.922,389.087,180.886"/>
	<polyline points="389.854,181.1 389.582,181.155 389.834,181.133 389.854,181.1 	"/>
	<path d="M401.818,199.072c0.043,1.162-0.341,1.727-0.686,2.725l-0.621,0.311c-0.509,0.988,0.05,0.627-0.314,1.412
		c-0.794,0.707-2.409,2.209-2.926,2.347c-0.377-0.009,0.257-0.445,0.339-0.617c-1.063,0.73-0.854,1.096-2.479,1.539l-0.047-0.105
		c-4.009,1.886-9.576-1.852-9.503-6.95c-0.044,0.324-0.122,0.243-0.211,0.374c-0.206-2.623,1.212-5.258,3.604-6.334
		c2.34-1.158,5.082-0.683,6.759,0.879c-0.92-1.206-2.753-2.484-4.925-2.364c-2.128,0.033-4.117,1.385-4.781,2.853
		c-1.09,0.687-1.217,2.646-1.69,3.004c-0.64,4.695,1.201,6.724,4.314,9.11c0.49,0.33,0.139,0.38,0.205,0.632
		c-1.035-0.484-1.982-1.216-2.762-2.111c0.414,0.605,0.859,1.193,1.436,1.656c-0.975-0.331-2.278-2.364-2.658-2.447
		c1.682,3.011,6.822,5.28,9.514,4.154c-1.246,0.046-2.828,0.025-4.228-0.492c-0.587-0.302-1.388-0.929-1.244-1.046
		c3.673,1.372,7.469,1.04,10.646-1.508c0.809-0.63,1.692-1.701,1.947-1.717c-0.385,0.578,0.065,0.278-0.23,0.79
		c0.806-1.3-0.349-0.53,0.833-2.245l0.438,0.602c-0.162-1.078,1.34-2.388,1.188-4.094c0.344-0.522,0.385,0.561,0.02,1.762
		c0.507-1.332,0.133-1.546,0.264-2.645c0.141,0.369,0.326,0.762,0.42,1.151c-0.33-1.286,0.34-2.167,0.506-2.915
		c-0.164-0.072-0.512,0.569-0.59-0.95c0.011-0.661,0.183-0.347,0.25-0.509c-0.13-0.074-0.471-0.58-0.678-1.552
		c0.15-0.228,0.401,0.592,0.605,0.625c-0.132-0.771-0.357-1.36-0.366-1.952c-0.597-1.246-0.212,0.166-0.694-0.535
		c-0.635-1.979,0.526-0.459,0.605-1.358c0.961,1.394,1.51,3.554,1.761,4.447c-0.192-1.091-0.502-2.146-0.882-3.169
		c0.293,0.123-0.471-2.244,0.38-0.677c-0.907-3.341-3.887-6.464-6.627-7.929c0.335,0.307,0.759,0.692,0.606,0.753
		c-1.363-0.813-1.123-0.875-1.318-1.218c-1.109-0.452-1.184,0.036-1.918,0c-2.092-1.109-2.495-0.991-4.422-1.687l0.088,0.409
		c-1.387-0.462-1.615,0.176-3.113,0.002c-0.091-0.071,0.48-0.258,0.951-0.326c-1.341,0.177-1.278-0.264-2.59,0.049
		c0.324-0.227,0.664-0.377,1.01-0.57c-1.093,0.066-2.609,0.636-2.142,0.118c-1.784,0.796-4.95,1.913-6.727,3.579l-0.056-0.374
		c-0.814,0.978-3.551,2.919-3.769,4.185l-0.218,0.052c-0.424,0.717-0.697,1.53-1.033,2.268c-0.555,0.944-0.813,0.364-0.734,0.512
		c-1.09,2.209-1.631,4.066-2.098,5.589c0.332,0.498,0.008,2.999,0.134,5c-0.548,9.884,6.937,19.479,15.116,21.694
		c1.199,0.429,2.982,0.412,4.499,0.456c-1.789-0.512-2.021-0.271-3.763-0.879c-1.258-0.592-1.533-1.268-2.424-2.041l0.352,0.623
		c-1.746-0.618-1.016-0.766-2.437-1.216l0.376-0.491c-0.565-0.043-1.499-0.954-1.754-1.459l-0.619,0.024
		c-0.745-0.918-1.141-1.58-1.113-2.093l-0.199,0.357c-0.227-0.39-2.738-3.444-1.435-2.733c-0.242-0.222-0.564-0.36-0.913-0.993
		l0.266-0.304c-0.627-0.807-1.154-1.841-1.114-2.185c0.334,0.452,0.566,0.536,0.796,0.613c-1.583-3.928-1.672-0.216-2.871-3.998
		l0.254-0.021c-0.194-0.293-0.313-0.611-0.469-0.923l0.109-1.101c-1.14-1.318-0.318-5.604-0.154-7.954
		c0.115-0.956,0.952-1.974,1.59-3.568l-0.389-0.067c0.741-1.294,4.234-5.196,5.853-4.995c0.784-0.985-0.155-0.004-0.31-0.252
		c1.722-1.781,2.264-1.259,3.426-1.579c1.252-0.744-1.076,0.29-0.482-0.283c2.166-0.554,1.535-1.258,4.361-1.539
		c0.298,0.17-0.692,0.263-0.94,0.482c1.804-0.883,5.711-0.683,8.248,0.489c2.944,1.377,6.252,5.443,6.382,9.271l0.149,0.04
		c-0.075,1.521,0.232,3.28-0.301,4.896L401.818,199.072"/>
	<path d="M383.965,204.236l-0.1,0.503c0.472,0.643,0.847,1.338,1.449,1.84C384.881,205.731,384.559,205.382,383.965,204.236"/>
	<path d="M385.083,204.192c-0.251-0.277-0.398-0.609-0.564-0.941c0.158,0.583,0.483,1.084,0.785,1.594L385.083,204.192"/>
	<path d="M404.848,199.896l-0.105,0.265c-0.193,1.375-0.611,2.736-1.252,3.998C404.198,202.828,404.656,201.372,404.848,199.896"/>
	<path d="M389.229,180.541c0.486-0.179,1.195-0.098,1.711-0.215c-0.672,0.056-1.341,0.09-2.002,0.175L389.229,180.541"/>
	<path d="M372.163,189.615c0.112,1.037-0.78,1.439,0.198,0.756C372.885,189.19,372.156,190.045,372.163,189.615"/>
	<path d="M371.014,194.414c0.226-0.691,0.267-1.106,0.353-1.507C370.744,193.704,371.08,193.873,371.014,194.414"/>
</g>
</svg>
